<svg viewBox="0 0 1170 409" fill="none" xmlns="http://www.w3.org/2000/svg">
                    <path d="M23 429.5C76.8333 368.5 221.4 250.7 369 267.5L629.5 318C705.333 331.333 836 343.5 903.5 174C943.5 107.667 1014 18 1200.5 31.4999" stroke="#FFBF00" stroke-width="60"></path>
                    <path d="M68.9783 389.495C70.5915 389.695 71.9914 390.415 73.178 391.642C74.8179 393.348 75.5512 395.255 75.3645 397.335C75.1779 399.414 73.9913 401.508 71.8181 403.601L63.0854 412L43.5 391.655L52.0594 383.415C54.1126 381.442 56.1258 380.362 58.099 380.202C60.0722 380.042 61.8454 380.776 63.4187 382.416C64.6453 383.682 65.3119 385.042 65.4185 386.482C65.5385 387.922 65.1652 389.295 64.3386 390.575C65.8052 389.655 67.3517 389.282 68.9783 389.495ZM55.7792 396.281L59.4456 392.762C60.4589 391.775 61.0188 390.815 61.1122 389.855C61.2055 388.895 60.8455 387.989 60.0322 387.149C59.219 386.309 58.3257 385.895 57.3657 385.935C56.4058 385.975 55.3792 386.509 54.3126 387.549L50.7129 391.015L55.7792 396.281ZM69.6183 397.975C69.7383 396.948 69.3649 395.988 68.4983 395.081C67.6317 394.175 66.6718 393.761 65.6052 393.841C64.5386 393.921 63.4853 394.468 62.4054 395.508L58.5657 399.201L63.952 404.787L67.8184 401.068C68.8983 400.028 69.4983 399.001 69.6183 397.975Z" fill="black"></path>
                    <path d="M67.0185 369.789L77.7244 382.415C79.151 384.108 80.6042 385.055 82.0575 385.268C83.5107 385.482 84.9506 385.002 86.3505 383.802C87.7371 382.629 88.4437 381.309 88.4704 379.829C88.497 378.362 87.7904 376.776 86.3638 375.082L75.6579 362.457L79.9243 358.844L90.6302 371.469C92.3234 373.469 93.3767 375.456 93.8033 377.469C94.23 379.469 94.07 381.362 93.3234 383.149C92.5768 384.935 91.3768 386.535 89.7103 387.948C87.1238 390.135 84.404 391.121 81.5508 390.881C78.6977 390.641 76.0045 389.028 73.4714 386.042L62.7654 373.416L67.0185 369.789Z" fill="black"></path>
                    <path d="M114.122 363.497C114.282 364.897 114.029 366.323 113.349 367.763C112.669 369.203 111.522 370.536 109.909 371.763C108.322 372.976 106.696 373.79 105.029 374.203C103.363 374.616 101.776 374.603 100.243 374.15C98.7097 373.696 97.3764 372.843 96.2432 371.563L101.016 367.937C101.816 368.763 102.763 369.243 103.843 369.376C104.923 369.51 105.989 369.176 107.029 368.377C107.962 367.67 108.496 366.87 108.602 365.99C108.722 365.11 108.482 364.284 107.882 363.497C107.349 362.79 106.709 362.377 105.963 362.217C105.216 362.07 104.429 362.084 103.603 362.284C102.776 362.484 101.683 362.804 100.323 363.27C98.563 363.87 97.0698 364.284 95.8299 364.497C94.5899 364.723 93.3234 364.63 92.0434 364.244C90.7502 363.844 89.5769 362.95 88.5103 361.55C87.0438 359.617 86.5771 357.564 87.1238 355.391C87.6704 353.218 89.0836 351.258 91.3768 349.511C93.75 347.698 96.0832 346.831 98.363 346.911C100.643 346.978 102.616 347.898 104.256 349.671L99.4163 353.351C98.6697 352.644 97.8297 352.231 96.8831 352.138C95.9365 352.044 94.9899 352.351 94.03 353.084C93.2034 353.711 92.6967 354.444 92.5234 355.257C92.3501 356.084 92.5767 356.911 93.2034 357.737C93.71 358.391 94.31 358.791 95.0432 358.924C95.7632 359.057 96.5365 359.031 97.3498 358.857C98.163 358.671 99.2163 358.351 100.523 357.897C102.349 357.311 103.883 356.897 105.136 356.657C106.376 356.417 107.656 356.497 108.976 356.911C110.296 357.324 111.495 358.244 112.589 359.684C113.442 360.817 113.962 362.097 114.122 363.497Z" fill="black"></path>
                    <path d="M108.789 337.272L125.108 360.324L120.508 363.577L104.189 340.525L108.789 337.272Z" fill="black"></path>
                    <path d="M149.08 344.431L144.347 347.498L123.295 338.272L133.747 354.377L129.014 357.444L113.642 333.752L118.375 330.686L139.52 340.045L128.988 323.806L133.721 320.74L149.08 344.431Z" fill="black"></path>
                    <path d="M146.186 318.646L149.853 324.979L158.519 319.98L160.679 323.726L152.013 328.726L155.813 335.312L165.505 329.712L167.772 333.632L153.186 342.058L139.067 317.58L153.653 309.154L155.893 313.033L146.186 318.646Z" fill="black"></path>
                    <path d="M185.677 320.059C185.597 321.473 185.091 322.819 184.171 324.126C183.251 325.432 181.891 326.539 180.091 327.472C178.318 328.392 176.571 328.899 174.865 329.019C173.158 329.139 171.585 328.845 170.158 328.139C168.732 327.432 167.572 326.352 166.665 324.899L171.998 322.153C172.638 323.113 173.491 323.752 174.531 324.059C175.585 324.379 176.678 324.232 177.838 323.632C178.878 323.099 179.531 322.406 179.811 321.566C180.078 320.726 179.984 319.859 179.544 318.979C179.144 318.193 178.584 317.673 177.864 317.393C177.158 317.113 176.371 317.006 175.531 317.046C174.678 317.086 173.558 317.22 172.131 317.446C170.292 317.726 168.758 317.873 167.492 317.873C166.238 317.873 164.999 317.58 163.799 316.966C162.599 316.353 161.599 315.273 160.786 313.7C159.679 311.54 159.572 309.447 160.492 307.394C161.412 305.34 163.145 303.674 165.705 302.354C168.358 300.981 170.812 300.541 173.038 301.007C175.278 301.474 177.051 302.727 178.358 304.74L172.958 307.527C172.358 306.7 171.585 306.154 170.678 305.887C169.758 305.62 168.772 305.767 167.705 306.314C166.785 306.794 166.159 307.42 165.839 308.194C165.519 308.967 165.599 309.82 166.079 310.753C166.452 311.487 166.985 311.98 167.678 312.247C168.372 312.513 169.132 312.62 169.958 312.58C170.798 312.54 171.891 312.407 173.251 312.193C175.158 311.927 176.744 311.793 178.011 311.767C179.278 311.74 180.518 312.047 181.744 312.673C182.971 313.3 183.997 314.42 184.824 316.033C185.477 317.313 185.757 318.659 185.677 320.059Z" fill="black"></path>
                    <path d="M206.969 310.327C206.809 311.727 206.236 313.047 205.249 314.3C204.263 315.553 202.836 316.593 200.996 317.42C199.17 318.246 197.41 318.66 195.69 318.686C193.97 318.713 192.423 318.34 191.037 317.553C189.65 316.78 188.544 315.633 187.717 314.127L193.183 311.66C193.77 312.647 194.583 313.327 195.61 313.7C196.636 314.073 197.743 313.993 198.943 313.447C200.01 312.967 200.703 312.313 201.023 311.487C201.343 310.66 201.29 309.793 200.89 308.887C200.53 308.087 199.996 307.527 199.303 307.207C198.61 306.887 197.836 306.74 196.983 306.74C196.13 306.74 194.997 306.82 193.57 306.954C191.73 307.14 190.17 307.207 188.917 307.14C187.664 307.074 186.45 306.714 185.277 306.034C184.117 305.354 183.171 304.22 182.451 302.621C181.451 300.407 181.464 298.301 182.491 296.314C183.517 294.328 185.331 292.728 187.957 291.555C190.677 290.328 193.143 290.008 195.357 290.595C197.57 291.181 199.276 292.515 200.476 294.608L194.93 297.101C194.37 296.248 193.637 295.661 192.743 295.341C191.85 295.021 190.85 295.114 189.757 295.608C188.81 296.034 188.157 296.634 187.797 297.394C187.437 298.154 187.477 299.008 187.904 299.954C188.237 300.714 188.744 301.234 189.424 301.527C190.104 301.821 190.85 301.967 191.69 301.981C192.53 301.981 193.623 301.914 194.997 301.767C196.916 301.607 198.503 301.554 199.77 301.594C201.036 301.647 202.263 302.007 203.449 302.701C204.636 303.394 205.609 304.567 206.343 306.22C206.916 307.567 207.129 308.927 206.969 310.327Z" fill="black"></path>
                    <path d="M236.9 298.968C236.634 300.354 235.954 301.634 234.874 302.794C233.794 303.967 232.301 304.887 230.394 305.581C228.514 306.26 226.714 306.54 225.008 306.434C223.301 306.327 221.781 305.834 220.462 304.954C219.142 304.074 218.128 302.847 217.422 301.287L223.061 299.261C223.581 300.301 224.328 301.034 225.328 301.487C226.328 301.941 227.434 301.941 228.674 301.501C229.781 301.101 230.514 300.501 230.901 299.701C231.274 298.901 231.301 298.034 230.968 297.101C230.674 296.274 230.181 295.675 229.514 295.301C228.848 294.928 228.088 294.715 227.234 294.648C226.381 294.581 225.248 294.568 223.821 294.608C221.968 294.648 220.422 294.595 219.168 294.435C217.915 294.275 216.742 293.821 215.635 293.048C214.529 292.288 213.675 291.075 213.075 289.422C212.249 287.142 212.422 285.049 213.595 283.129C214.769 281.222 216.702 279.782 219.408 278.796C222.221 277.782 224.701 277.649 226.861 278.409C229.021 279.169 230.621 280.622 231.647 282.809L225.928 284.862C225.435 283.969 224.755 283.329 223.875 282.942C222.995 282.555 221.995 282.569 220.875 282.982C219.902 283.329 219.195 283.875 218.782 284.609C218.368 285.342 218.328 286.195 218.688 287.168C218.968 287.942 219.435 288.515 220.088 288.862C220.742 289.208 221.475 289.422 222.315 289.488C223.141 289.555 224.248 289.568 225.621 289.528C227.541 289.515 229.128 289.582 230.394 289.728C231.647 289.875 232.847 290.342 233.981 291.115C235.114 291.888 235.981 293.141 236.594 294.848C237.06 296.221 237.167 297.594 236.9 298.968Z" fill="black"></path>
                    <path d="M240.1 272.303L244.7 288.208C245.313 290.328 246.247 291.795 247.486 292.581C248.726 293.368 250.233 293.514 252.006 293.008C253.753 292.501 254.926 291.581 255.566 290.248C256.193 288.915 256.206 287.182 255.593 285.062L250.993 269.156L256.379 267.596L260.979 283.502C261.699 286.008 261.845 288.261 261.419 290.261C260.979 292.261 260.059 293.928 258.659 295.248C257.259 296.568 255.499 297.541 253.393 298.141C250.14 299.087 247.26 298.861 244.753 297.474C242.247 296.088 240.447 293.514 239.354 289.755L234.754 273.849L240.1 272.303Z" fill="black"></path>
                    <path d="M292.803 260.183L298.27 287.555L292.777 288.648L288.964 269.543L285.764 290.048L280.978 291.008L270.152 273.396L273.951 292.421L268.418 293.528L262.952 266.156L269.658 264.81L282.084 283.742L286.124 261.517L292.803 260.183Z" fill="black"></path>
                    <path d="M330.254 256.144L332.974 283.929L327.401 284.475L325.508 265.09L320.282 285.169L315.429 285.649L306.416 267.036L308.309 286.342L302.696 286.888L299.976 259.104L306.789 258.437L317.268 278.516L323.508 256.81L330.254 256.144Z" fill="black"></path>
                    <path d="M342.44 255.65L343.293 283.875L337.654 284.049L336.814 255.81L342.44 255.65Z" fill="black"></path>
                    <path d="M367.772 255.824L367.692 260.304L359.892 260.157L359.452 283.915L353.813 283.809L354.253 260.05L346.493 259.904L346.573 255.424L367.772 255.824Z" fill="black"></path>
                    <path d="M393.037 266.316C393.17 265.077 392.983 264.063 392.463 263.277C391.943 262.49 391.05 262.037 389.784 261.89C387.157 261.597 385.571 263.237 385.011 266.796L379.571 266.196C380.091 262.903 381.384 260.504 383.424 258.997C385.464 257.49 387.904 256.904 390.744 257.21C393.637 257.53 395.77 258.53 397.156 260.197C398.543 261.863 399.09 263.943 398.823 266.436C398.61 268.396 397.81 270.303 396.436 272.143C395.063 273.996 393.397 275.649 391.437 277.102C389.477 278.569 387.45 279.782 385.357 280.756L397.636 282.115L397.13 286.688L377.371 284.502L377.838 280.329C387.517 275.103 392.583 270.423 393.037 266.316Z" fill="black"></path>
                    <path d="M402.263 273.236C403.876 263.823 408.236 259.73 415.329 260.957C419.088 261.597 421.581 263.33 422.795 266.143C424.021 268.956 424.248 272.529 423.501 276.902C422.741 281.289 421.328 284.608 419.235 286.848C417.142 289.088 414.222 289.888 410.462 289.235C403.369 288.008 400.636 282.675 402.263 273.236ZM418.035 275.956C418.528 273.116 418.555 270.876 418.115 269.21C417.688 267.556 416.448 266.543 414.435 266.196C412.382 265.85 410.876 266.37 409.916 267.796C408.956 269.223 408.236 271.343 407.742 274.183C407.249 277.049 407.222 279.302 407.649 280.969C408.076 282.622 409.316 283.635 411.369 283.982C413.395 284.329 414.889 283.795 415.849 282.382C416.808 280.955 417.542 278.822 418.035 275.956Z" fill="black"></path>
                    <path d="M441.234 274.396C441.46 273.169 441.353 272.143 440.887 271.316C440.434 270.503 439.567 269.969 438.314 269.743C435.714 269.263 434.007 270.769 433.194 274.289L427.808 273.289C428.568 270.036 430.034 267.743 432.181 266.396C434.327 265.05 436.807 264.637 439.607 265.156C442.46 265.69 444.527 266.836 445.78 268.596C447.033 270.369 447.433 272.476 446.98 274.942C446.62 276.889 445.687 278.729 444.18 280.462C442.673 282.209 440.9 283.729 438.834 285.048C436.767 286.355 434.661 287.422 432.501 288.248L444.647 290.501L443.807 295.021L424.261 291.395L425.035 287.262C435.087 282.742 440.474 278.462 441.234 274.396Z" fill="black"></path>
                    <path d="M447.606 290.195L448.513 285.609L465.285 270.356L471.218 271.516L467.752 289.182L471.365 289.888L470.432 294.675L466.818 293.968L465.725 299.541L460.152 298.448L461.245 292.875L447.606 290.195ZM464.792 276.982L454.193 286.515L462.592 288.168L464.792 276.982Z" fill="black"></path>
                    <path d="M548.96 304.021C549.72 305.461 549.933 307.021 549.6 308.7C549.133 311.034 547.986 312.713 546.16 313.74C544.333 314.78 541.947 314.993 538.987 314.407L527.108 312.034L532.654 284.342L544.307 286.675C547.106 287.235 549.133 288.275 550.386 289.808C551.639 291.342 552.053 293.208 551.599 295.435C551.253 297.155 550.52 298.488 549.4 299.394C548.28 300.314 546.946 300.794 545.413 300.834C547.013 301.514 548.2 302.581 548.96 304.021ZM542.36 309.394C543.267 308.914 543.853 308.06 544.093 306.821C544.333 305.581 544.133 304.567 543.467 303.741C542.8 302.914 541.733 302.354 540.28 302.061L535.067 301.021L533.547 308.634L538.8 309.687C540.254 309.967 541.44 309.874 542.36 309.394ZM535.854 297.048L540.84 298.048C542.227 298.328 543.347 298.234 544.187 297.754C545.027 297.288 545.56 296.475 545.8 295.328C546.027 294.181 545.853 293.221 545.28 292.448C544.693 291.675 543.68 291.155 542.213 290.862L537.307 289.875L535.854 297.048Z" fill="black"></path>
                    <path d="M562.505 290.248L559.412 306.514C558.999 308.687 559.172 310.407 559.919 311.673C560.666 312.94 561.945 313.753 563.759 314.087C565.545 314.42 567.012 314.14 568.172 313.233C569.332 312.327 570.118 310.794 570.532 308.62L573.625 292.355L579.131 293.395L576.038 309.66C575.545 312.233 574.665 314.3 573.371 315.887C572.078 317.473 570.505 318.54 568.652 319.086C566.798 319.633 564.799 319.7 562.652 319.286C559.319 318.66 556.852 317.153 555.239 314.78C553.626 312.407 553.186 309.3 553.919 305.447L557.012 289.182L562.505 290.248Z" fill="black"></path>
                    <path d="M597.303 321.473C596.383 322.539 595.17 323.326 593.65 323.806C592.13 324.286 590.37 324.352 588.384 324.006C586.41 323.659 584.717 323.019 583.277 322.086C581.837 321.139 580.771 319.966 580.051 318.539C579.344 317.113 579.064 315.553 579.224 313.846L585.131 314.873C585.064 316.033 585.357 317.046 585.997 317.926C586.637 318.806 587.61 319.366 588.89 319.593C590.05 319.793 590.984 319.646 591.717 319.126C592.437 318.619 592.89 317.873 593.063 316.9C593.21 316.033 593.09 315.273 592.69 314.62C592.29 313.966 591.743 313.406 591.037 312.927C590.33 312.447 589.357 311.873 588.09 311.193C586.464 310.313 585.144 309.5 584.131 308.74C583.131 307.98 582.331 306.994 581.744 305.78C581.158 304.567 581.011 303.1 581.318 301.367C581.731 298.981 582.917 297.248 584.891 296.168C586.85 295.088 589.25 294.794 592.09 295.288C595.037 295.794 597.25 296.914 598.756 298.647C600.25 300.367 600.916 302.434 600.743 304.834L594.757 303.794C594.77 302.767 594.49 301.874 593.93 301.114C593.357 300.354 592.477 299.861 591.304 299.661C590.277 299.487 589.41 299.607 588.677 300.034C587.957 300.461 587.504 301.194 587.317 302.207C587.17 303.021 587.304 303.74 587.69 304.367C588.077 304.994 588.624 305.54 589.317 306.007C590.01 306.474 590.957 307.034 592.17 307.687C593.85 308.633 595.197 309.473 596.21 310.22C597.223 310.967 598.036 311.953 598.636 313.206C599.236 314.46 599.37 315.966 599.063 317.753C598.81 319.166 598.223 320.406 597.303 321.473Z" fill="black"></path>
                    <path d="M611.782 298.981L607.329 326.872L601.756 325.979L606.209 298.101L611.782 298.981Z" fill="black"></path>
                    <path d="M635.914 330.979L630.328 330.206L620.448 309.447L617.808 328.459L612.222 327.686L616.102 299.714L621.688 300.488L631.541 321.406L634.207 302.234L639.794 303.007L635.914 330.979Z" fill="black"></path>
                    <path d="M649.073 308.514L648.313 315.793L658.259 316.833L657.806 321.126L647.86 320.086L647.073 327.646L658.206 328.806L657.739 333.299L640.994 331.552L643.927 303.474L660.672 305.22L660.206 309.673L649.073 308.514Z" fill="black"></path>
                    <path d="M681.098 331.179C680.298 332.339 679.178 333.245 677.711 333.885C676.258 334.525 674.511 334.779 672.485 334.659C670.485 334.525 668.725 334.072 667.205 333.299C665.672 332.526 664.485 331.459 663.619 330.126C662.752 328.792 662.312 327.259 662.285 325.553L668.272 325.939C668.325 327.099 668.725 328.073 669.472 328.886C670.205 329.699 671.232 330.139 672.538 330.219C673.711 330.299 674.631 330.046 675.298 329.459C675.965 328.872 676.325 328.086 676.391 327.099C676.445 326.219 676.245 325.486 675.778 324.873C675.311 324.273 674.698 323.766 673.951 323.366C673.205 322.966 672.165 322.5 670.832 321.966C669.112 321.273 667.712 320.593 666.632 319.953C665.552 319.313 664.659 318.42 663.939 317.273C663.219 316.127 662.925 314.687 663.032 312.927C663.192 310.5 664.179 308.647 666.019 307.367C667.845 306.087 670.205 305.527 673.071 305.714C676.058 305.901 678.378 306.781 680.058 308.327C681.738 309.874 682.617 311.86 682.697 314.273L676.631 313.887C676.538 312.86 676.165 312.007 675.511 311.314C674.858 310.62 673.938 310.234 672.738 310.154C671.698 310.087 670.845 310.3 670.165 310.807C669.498 311.314 669.125 312.087 669.058 313.114C669.005 313.94 669.205 314.647 669.672 315.22C670.125 315.793 670.725 316.287 671.458 316.673C672.191 317.073 673.205 317.527 674.471 318.033C676.245 318.793 677.671 319.486 678.764 320.113C679.858 320.74 680.764 321.646 681.498 322.82C682.217 323.993 682.524 325.473 682.417 327.286C682.337 328.712 681.884 330.019 681.098 331.179Z" fill="black"></path>
                    <path d="M705.416 331.619C704.683 332.832 703.603 333.792 702.189 334.512C700.763 335.232 699.043 335.579 697.016 335.565C695.017 335.552 693.23 335.192 691.67 334.499C690.11 333.806 688.857 332.806 687.924 331.526C686.99 330.232 686.471 328.739 686.351 327.033L692.35 327.086C692.47 328.233 692.923 329.193 693.697 329.953C694.47 330.726 695.523 331.112 696.83 331.126C698.003 331.139 698.91 330.832 699.536 330.219C700.163 329.593 700.496 328.793 700.496 327.806C700.51 326.926 700.256 326.193 699.763 325.619C699.256 325.046 698.63 324.58 697.856 324.22C697.083 323.86 696.03 323.46 694.67 322.993C692.91 322.393 691.483 321.793 690.364 321.206C689.244 320.62 688.31 319.78 687.524 318.673C686.75 317.567 686.364 316.14 686.391 314.38C686.417 311.954 687.31 310.047 689.07 308.661C690.83 307.274 693.15 306.607 696.03 306.634C699.016 306.661 701.389 307.407 703.149 308.861C704.909 310.314 705.896 312.247 706.109 314.647L700.03 314.594C699.883 313.58 699.456 312.74 698.776 312.087C698.096 311.434 697.15 311.087 695.95 311.074C694.91 311.06 694.07 311.327 693.417 311.874C692.777 312.42 692.443 313.207 692.43 314.247C692.417 315.073 692.657 315.767 693.15 316.313C693.643 316.86 694.257 317.313 695.017 317.673C695.777 318.033 696.803 318.42 698.11 318.86C699.91 319.513 701.39 320.14 702.509 320.7C703.643 321.273 704.589 322.126 705.389 323.246C706.176 324.38 706.563 325.846 706.549 327.659C706.523 329.086 706.149 330.406 705.416 331.619Z" fill="black"></path>
                    <path d="M740.08 307.074C742.573 308.647 744.347 310.94 745.413 313.967L739.52 314.567C738.76 313.113 737.68 312.02 736.307 311.273C734.934 310.527 733.334 310.247 731.534 310.433C730.054 310.593 728.748 311.1 727.628 311.967C726.508 312.833 725.695 313.993 725.175 315.433C724.655 316.886 724.495 318.54 724.681 320.393C724.868 322.219 725.361 323.793 726.174 325.099C726.974 326.406 728.014 327.379 729.281 327.992C730.548 328.619 731.934 328.846 733.414 328.699C735.214 328.512 736.72 327.912 737.92 326.912C739.12 325.912 739.947 324.619 740.4 323.033L746.293 322.433C745.867 325.606 744.6 328.219 742.48 330.259C740.36 332.299 737.547 333.499 734.041 333.859C731.361 334.139 728.934 333.779 726.748 332.779C724.561 331.779 722.801 330.259 721.455 328.192C720.108 326.139 719.282 323.726 719.002 320.966C718.722 318.18 719.028 315.646 719.922 313.353C720.828 311.06 722.241 309.207 724.148 307.794C726.068 306.38 728.374 305.527 731.081 305.247C734.587 304.9 737.587 305.5 740.08 307.074Z" fill="black"></path>
                    <path d="M767.399 300.341C769.772 301.021 771.825 302.288 773.545 304.127C775.265 305.967 776.465 308.247 777.118 310.94C777.771 313.633 777.758 316.207 777.078 318.646C776.398 321.086 775.158 323.166 773.358 324.859C771.558 326.566 769.385 327.726 766.812 328.339C764.252 328.966 761.772 328.939 759.399 328.246C757.026 327.566 754.973 326.286 753.239 324.433C751.506 322.58 750.32 320.3 749.666 317.607C749.013 314.913 749.026 312.354 749.706 309.914C750.386 307.474 751.626 305.421 753.426 303.714C755.226 302.021 757.399 300.848 759.972 300.234C762.546 299.634 765.025 299.661 767.399 300.341ZM757.239 307.421C756.199 308.447 755.506 309.714 755.146 311.247C754.786 312.78 754.839 314.447 755.279 316.26C755.719 318.073 756.453 319.58 757.466 320.766C758.479 321.953 759.692 322.766 761.079 323.206C762.479 323.633 763.972 323.659 765.585 323.259C767.185 322.873 768.518 322.166 769.558 321.14C770.598 320.113 771.292 318.846 771.652 317.313C772.012 315.78 771.972 314.113 771.518 312.3C771.065 310.487 770.345 308.98 769.332 307.794C768.318 306.594 767.105 305.794 765.719 305.354C764.319 304.927 762.825 304.901 761.212 305.301C759.612 305.701 758.279 306.407 757.239 307.421Z" fill="black"></path>
                    <path d="M809.302 312.78L804.129 315.033L784.877 302.474L792.543 320.073L787.37 322.326L776.091 296.434L781.264 294.181L800.583 306.887L792.85 289.142L798.023 286.888L809.302 312.78Z" fill="black"></path>
                    <path d="M815.582 275.462L818.022 279.222L808.062 285.688L812.182 292.021L820.168 286.835L822.515 290.461L814.529 295.648L820.995 305.607L816.262 308.674L800.876 284.995L815.582 275.462Z" fill="black"></path>
                    <path d="M824.581 273.623L829.394 279.129L836.927 272.543L839.767 275.796L832.234 282.382L837.234 288.102L845.66 280.729L848.633 284.129L835.954 295.208L817.368 273.956L830.048 262.877L832.994 266.25L824.581 273.623Z" fill="black"></path>
                    <path d="M862.979 268.21L850.326 266.063L848.713 267.943L857.059 275.102L853.393 279.382L831.954 261.01L838.954 252.837C841.087 250.344 843.327 248.971 845.66 248.704C847.993 248.438 850.153 249.158 852.14 250.864C853.753 252.251 854.726 253.864 855.046 255.704C855.366 257.544 854.979 259.463 853.886 261.477L867.032 263.477L862.979 268.21ZM845.767 265.423L848.78 261.903C850.886 259.45 850.846 257.304 848.686 255.437C847.66 254.557 846.593 254.157 845.5 254.264C844.407 254.371 843.327 255.05 842.247 256.304L839.234 259.823L845.767 265.423Z" fill="black"></path>
                    <path d="M853.659 240.838L859.766 244.878L865.272 236.532L868.872 238.918L863.365 247.264L869.712 251.451L875.885 242.105L879.658 244.598L870.378 258.65L846.82 243.091L856.099 229.039L859.832 231.505L853.659 240.838Z" fill="black"></path>
                    <path d="M893.803 218.64L891.11 223.599L868.205 225.559L885.084 234.705L882.391 239.665L857.566 226.199L860.259 221.239L883.297 219.36L866.285 210.133L868.978 205.174L893.803 218.64Z" fill="black"></path>
                    <path d="M884.657 182.789C887.39 181.696 890.297 181.602 893.363 182.522L890.39 187.642C888.764 187.415 887.257 187.629 885.844 188.308C884.431 188.988 883.271 190.108 882.364 191.682C881.618 192.975 881.258 194.321 881.311 195.735C881.351 197.148 881.817 198.494 882.671 199.761C883.537 201.041 884.777 202.134 886.391 203.067C887.977 203.987 889.55 204.507 891.084 204.627C892.617 204.747 894.003 204.467 895.257 203.814C896.51 203.147 897.496 202.174 898.256 200.881C899.163 199.308 899.563 197.748 899.456 196.188C899.35 194.628 898.79 193.201 897.776 191.908L900.75 186.789C903.069 189.002 904.443 191.562 904.843 194.481C905.243 197.401 904.563 200.374 902.803 203.427C901.456 205.761 899.736 207.507 897.643 208.694C895.563 209.867 893.283 210.4 890.83 210.294C888.377 210.174 885.937 209.427 883.537 208.027C881.111 206.627 879.244 204.881 877.924 202.801C876.605 200.721 875.925 198.494 875.911 196.108C875.898 193.721 876.565 191.348 877.924 189.002C879.671 185.949 881.924 183.882 884.657 182.789Z" fill="black"></path>
                    <path d="M894.27 170.95L900.47 174.829L905.776 166.35L909.442 168.643L904.136 177.122L910.576 181.149L916.522 171.656L920.348 174.056L911.416 188.335L887.484 173.349L896.416 159.07L900.216 161.443L894.27 170.95Z" fill="black"></path>
                    <path d="M934.761 146.538C935.334 147.831 935.507 149.258 935.294 150.831C935.081 152.404 934.374 154.017 933.214 155.671C932.054 157.297 930.748 158.564 929.281 159.457C927.814 160.35 926.281 160.804 924.695 160.844C923.108 160.884 921.575 160.457 920.108 159.577L923.575 154.684C924.588 155.244 925.628 155.417 926.708 155.217C927.788 155.017 928.694 154.377 929.454 153.311C930.134 152.351 930.401 151.444 930.254 150.564C930.108 149.684 929.628 148.964 928.828 148.404C928.108 147.898 927.374 147.685 926.614 147.764C925.855 147.844 925.108 148.098 924.375 148.538C923.641 148.964 922.708 149.604 921.548 150.458C920.055 151.551 918.748 152.391 917.628 152.977C916.508 153.564 915.282 153.857 913.935 153.871C912.589 153.884 911.202 153.377 909.762 152.364C907.789 150.964 906.722 149.138 906.589 146.911C906.456 144.671 907.229 142.378 908.882 140.032C910.602 137.592 912.575 136.072 914.775 135.459C916.975 134.845 919.122 135.139 921.215 136.325L917.695 141.285C916.775 140.832 915.855 140.698 914.922 140.885C913.989 141.072 913.175 141.658 912.482 142.632C911.882 143.485 911.615 144.325 911.695 145.165C911.775 146.005 912.229 146.725 913.082 147.325C913.762 147.804 914.455 148.004 915.189 147.911C915.922 147.831 916.642 147.578 917.362 147.151C918.082 146.738 919.002 146.111 920.095 145.298C921.668 144.191 923.001 143.338 924.121 142.738C925.228 142.138 926.481 141.832 927.854 141.832C929.228 141.832 930.654 142.352 932.134 143.391C933.321 144.178 934.187 145.245 934.761 146.538Z" fill="black"></path>
                    <path d="M922.108 122.819L934.974 133.245C936.694 134.632 938.294 135.298 939.76 135.245C941.227 135.192 942.547 134.445 943.707 133.005C944.853 131.592 945.293 130.165 945.053 128.712C944.8 127.259 943.827 125.832 942.107 124.446L929.241 114.02L932.761 109.673L945.627 120.099C947.653 121.739 949.066 123.512 949.853 125.406C950.64 127.299 950.84 129.179 950.44 131.072C950.04 132.965 949.16 134.752 947.773 136.458C945.64 139.085 943.147 140.551 940.307 140.858C937.467 141.165 934.507 140.071 931.468 137.605L918.602 127.179L922.108 122.819Z" fill="black"></path>
                    <path d="M959.186 82.8086L978.891 102.581L974.931 106.527L961.186 92.7279L969.865 111.58L966.412 115.02L947.64 106.34L961.332 120.073L957.332 124.059L937.627 104.287L942.467 99.4608L963.292 108.34L954.359 87.5949L959.186 82.8086Z" fill="black"></path>
                    <path d="M990.104 59.3701L1006.54 81.9286L1002.02 85.2217L990.557 69.4761L996.237 89.4348L992.29 92.3146L975.078 80.8487L986.504 96.5276L981.944 99.8474L965.505 77.2889L971.038 73.2625L990.264 85.2351L984.624 63.3699L990.104 59.3701Z" fill="black"></path>
                    <path d="M1001.48 52.8105L1015.5 77.3289L1010.61 80.1287L996.596 55.6104L1001.48 52.8105Z" fill="black"></path>
                    <path d="M1024.73 41.2646L1026.65 45.3177L1019.59 48.6642L1029.77 70.1294L1024.67 72.5426L1014.5 51.0773L1007.49 54.3971L1005.57 50.344L1024.73 41.2646Z" fill="black"></path>
                    <path d="M1052.73 39.9715C1052.34 38.7849 1051.74 37.9316 1050.95 37.4383C1050.17 36.945 1049.15 36.8917 1047.94 37.2916C1045.43 38.1183 1044.66 40.2515 1045.62 43.7312L1040.41 45.4378C1039.53 42.2247 1039.7 39.5048 1040.94 37.2916C1042.18 35.0785 1044.15 33.5319 1046.87 32.6386C1049.63 31.732 1051.99 31.7587 1053.94 32.7053C1055.89 33.6519 1057.26 35.3184 1058.03 37.705C1058.65 39.5848 1058.71 41.638 1058.22 43.8912C1057.74 46.1444 1056.9 48.3309 1055.73 50.4774C1054.54 52.6106 1053.21 54.5572 1051.7 56.317L1063.45 52.4773L1064.87 56.8503L1045.98 63.0233L1044.67 59.0369C1051.33 50.2508 1054.01 43.9045 1052.73 39.9715Z" fill="black"></path>
                    <path d="M1064.09 42.3982C1061.82 33.1321 1064.18 27.6392 1071.16 25.9193C1074.87 25.0127 1077.84 25.5993 1080.08 27.6925C1082.32 29.7857 1083.98 32.9722 1085.03 37.2652C1086.08 41.5849 1086.11 45.198 1085.08 48.0778C1084.06 50.9576 1081.7 52.8642 1077.99 53.7708C1070.99 55.4907 1066.37 51.6909 1064.09 42.3982ZM1079.62 38.5851C1078.94 35.7853 1078.06 33.7188 1077 32.3722C1075.95 31.0256 1074.42 30.599 1072.43 31.0789C1070.42 31.5723 1069.24 32.6655 1068.92 34.3454C1068.61 36.0253 1068.79 38.2651 1069.48 41.0649C1070.18 43.8914 1071.04 45.9713 1072.11 47.3179C1073.16 48.6644 1074.71 49.0911 1076.72 48.5978C1078.72 48.1045 1079.87 47.0246 1080.19 45.3447C1080.5 43.6648 1080.31 41.4116 1079.62 38.5851Z" fill="black"></path>
                    <path d="M1100.99 28.4923C1100.76 27.2657 1100.28 26.3458 1099.56 25.7458C1098.84 25.1459 1097.86 24.9592 1096.59 25.1992C1093.99 25.6791 1092.95 27.7057 1093.44 31.2788L1088.06 32.2787C1087.6 28.9723 1088.14 26.3058 1089.67 24.2659C1091.2 22.226 1093.35 20.9595 1096.16 20.4395C1099.02 19.9062 1101.35 20.2395 1103.16 21.4394C1104.98 22.6394 1106.11 24.4659 1106.56 26.9324C1106.92 28.8789 1106.71 30.9321 1105.94 33.092C1105.16 35.2518 1104.04 37.3184 1102.59 39.2916C1101.14 41.2514 1099.55 43.0113 1097.83 44.5446L1109.99 42.2914L1110.83 46.8111L1091.28 50.4375L1090.52 46.3044C1098.24 38.4916 1101.74 32.5587 1100.99 28.4923Z" fill="black"></path>
                    <path d="M1112.58 40.9981L1111.92 36.3584L1122.75 16.4397L1128.73 15.5864L1131.27 33.4119L1134.91 32.8919L1135.6 37.7183L1131.96 38.2383L1132.76 43.8645L1127.13 44.6645L1126.33 39.0382L1112.58 40.9981ZM1124.47 22.8659L1117.6 35.3584L1126.08 34.1585L1124.47 22.8659Z" fill="black"></path>
                    <path d="M1162.19 16.1064L1163.61 20.7194L1157.21 21.6394L1162.75 24.9458L1159.45 28.7322L1155.43 23.6392L1155.19 30.1855L1150.45 29.2122L1152.75 23.0926L1146.99 26.2257L1145.36 21.386L1151.76 20.4661L1146.32 17.173L1149.49 13.5066L1153.68 18.5329L1153.92 12L1158.71 12.9733L1156.36 19.0929L1162.19 16.1064Z" fill="black"></path>
                    <path d="M505.429 286.755L506.856 291.368L500.456 292.288L505.989 295.595L502.696 299.381L498.656 294.288L498.416 300.834L493.683 299.861L495.977 293.741L490.217 296.875L488.59 292.035L494.99 291.115L489.55 287.822L492.723 284.155L496.91 289.182L497.15 282.635L501.936 283.609L499.59 289.728L505.429 286.755Z" fill="black"></path>
                </svg>