<svg width="40" height="46" viewBox="0 0 40 46" fill="none" xmlns="http://www.w3.org/2000/svg">
                                    <path d="M15.5972 13.2418C15.7029 14.7645 17.4426 15.5982 18.7 14.7332C19.8061 13.9717 21.3161 14.7648 21.3161 16.1087V21.6379H25.4583C24.7226 18.634 27.1044 15.7075 30.2726 15.9263C33.0601 16.1195 35.1273 18.8036 34.4312 21.6379H38.6152C42.1163 16.3446 38.5904 8.68612 31.7679 8.33579C32.5394 4.26197 29.3982 0.506845 25.2817 0.506845C23.7947 0.506845 22.4209 1.00114 21.3161 1.83382V10.0861C21.3161 11.4291 19.8073 12.2235 18.6998 11.4617C17.3543 10.536 15.4806 11.5586 15.5972 13.2418Z" fill="currentColor"></path>
                                    <path d="M7.03868 21.638C8.38191 21.638 9.17618 23.1472 8.41408 24.2545C7.49272 25.5932 8.50434 27.4727 10.1947 27.356C11.7209 27.2502 12.5505 25.5092 11.6865 24.2541C10.9248 23.1474 11.7186 21.638 13.0622 21.638H18.6802V17.5823C15.8395 18.2802 13.1606 16.2052 12.9677 13.4241C12.7489 10.2693 15.6632 7.87173 18.6802 8.61045V1.8339C13.9505 -1.73059 7.17482 2.33945 8.21272 8.2486C1.34961 8.61326 -2.12357 16.2883 1.40779 21.638H7.03868Z" fill="currentColor"></path>
                                    <path d="M38.5711 24.274H32.9576C31.6138 24.274 30.8203 22.7644 31.5821 21.6578C32.4466 20.4022 31.6148 18.6617 30.0903 18.556C28.4001 18.4386 27.3879 20.3182 28.3096 21.6575C29.0715 22.7648 28.2778 24.274 26.9342 24.274H21.3162V28.3274C24.3246 27.5908 27.248 29.9785 27.0287 33.141C26.8357 35.9231 24.1561 37.9964 21.3162 37.2993V44.1662C26.0459 47.7307 32.8216 43.6606 31.7837 37.7515C38.4818 37.3954 42.205 29.8809 38.5711 24.274Z" fill="currentColor"></path>
                                    <path d="M24.399 32.9586C24.5156 31.2762 22.642 30.2527 21.2965 31.1787C20.1897 31.9398 18.6801 31.1473 18.6801 29.8032V24.2741H14.5357C15.2531 27.1938 13.0292 29.9973 10.0445 29.9973C7.03174 29.9973 4.85601 27.1584 5.56273 24.2741H1.40814C-2.12128 29.6232 1.34513 37.3108 8.22837 37.6643C7.45695 41.7381 10.5981 45.4932 14.7146 45.4932C16.2016 45.4932 17.5754 44.9989 18.6802 44.1663V35.8259C18.6802 34.4831 20.1891 33.6884 21.2962 34.4502C22.5511 35.3139 24.2932 34.4844 24.399 32.9586Z" fill="currentColor"></path>
                                </svg>