<svg width="50" height="50" viewBox="0 0 50 50" fill="none" xmlns="http://www.w3.org/2000/svg">
                                    <path d="M24.9996 9.37493C27.4289 9.37493 29.3983 7.27628 29.3983 4.68746C29.3983 2.09865 27.4289 0 24.9996 0C22.5702 0 20.6009 2.09865 20.6009 4.68746C20.6009 7.27628 22.5702 9.37493 24.9996 9.37493Z" fill="currentColor"></path>
                                    <path d="M32.1387 6.4081C31.3994 9.88808 28.486 12.4999 25.0001 12.4999C21.5141 12.4999 18.6008 9.88808 17.8614 6.4081C15.2392 7.03073 13.2701 9.52031 13.2701 12.4999V18.75C13.2701 20.4727 14.586 21.875 16.2026 21.875C17.8192 21.875 19.1351 20.4727 19.1351 18.75V15.6249H30.8651V18.75C30.8651 20.4727 32.181 21.875 33.7976 21.875C35.4142 21.875 36.7301 20.4727 36.7301 18.75V12.4999C36.73 9.52031 34.7608 7.03073 32.1387 6.4081Z" fill="currentColor"></path>
                                    <path d="M47.7262 38.1875C45.6222 36.893 42.9321 37.661 41.7173 39.9031C40.5027 42.145 41.2235 45.012 43.3275 46.3062C45.4313 47.6007 48.2194 46.8325 49.4339 44.5906C50.6487 42.3486 49.83 39.4819 47.7262 38.1875Z" fill="currentColor"></path>
                                    <path d="M45.0426 27.5154L39.9635 24.3904C38.5634 23.529 36.766 24.0423 35.9577 25.5343C35.1494 27.0263 35.631 28.9417 37.0311 29.8031L39.5708 31.3655L33.7057 42.1908L31.1661 40.6284C29.766 39.767 27.9685 40.2803 27.1602 41.7723C26.3519 43.2643 26.8336 45.1797 28.2337 46.0411L33.3128 49.1661C35.7344 50.6559 38.7422 50.0833 40.5591 47.9747C38.1007 45.5525 37.4347 41.5579 39.1777 38.3407C40.9207 35.1235 44.5 33.7409 47.6978 34.7985C48.503 32.0674 47.4643 29.0052 45.0426 27.5154Z" fill="currentColor"></path>
                                    <path d="M8.2827 39.9032C7.06795 37.6611 4.37782 36.893 2.27381 38.1876C0.170006 39.482 -0.648744 42.3487 0.566099 44.5908C1.78065 46.8327 4.56873 47.6009 6.67254 46.3064C8.77654 45.012 9.49734 42.1451 8.2827 39.9032Z" fill="currentColor"></path>
                                    <path d="M22.8398 41.7723C22.0315 40.2803 20.234 39.7671 18.834 40.6284L16.2943 42.1908L10.4293 31.3655L12.9689 29.8031C14.369 28.9417 14.8506 27.0262 14.0424 25.5343C13.2341 24.0423 11.4365 23.5291 10.0365 24.3904L4.95741 27.5154C2.53573 29.0052 1.49706 32.0674 2.30233 34.7986C5.50008 33.7409 9.07947 35.1236 10.8224 38.3408C12.5654 41.558 11.8994 45.5525 9.441 47.9748C11.2579 50.0833 14.2657 50.656 16.6874 49.1662L21.7665 46.0411C23.1665 45.1797 23.6481 43.2642 22.8398 41.7723Z" fill="currentColor"></path>
                                </svg>